<svg width="172" height="33" viewBox="0 0 172 33" fill="none" xmlns="http://www.w3.org/2000/svg">
<mask id="mask0_2045_102" style="mask-type:luminance" maskUnits="userSpaceOnUse" x="0" y="0" width="172" height="33">
<path d="M171.966 0.5H0.0338745V32.5H171.966V0.5Z" fill="white"/>
</mask>
<g mask="url(#mask0_2045_102)">
<mask id="mask1_2045_102" style="mask-type:luminance" maskUnits="userSpaceOnUse" x="0" y="0" width="172" height="33">
<path d="M171.966 0.5H0.0338745V32.5H171.966V0.5Z" fill="white"/>
</mask>
<g mask="url(#mask1_2045_102)">
<mask id="mask2_2045_102" style="mask-type:luminance" maskUnits="userSpaceOnUse" x="0" y="0" width="33" height="33">
<path d="M32.2712 0.5H0.0338745V32.5H32.2712V0.5Z" fill="white"/>
</mask>
<g mask="url(#mask2_2045_102)">
<path fill-rule="evenodd" clip-rule="evenodd" d="M8.40201 8.90944C12.0777 5.26075 17.6859 4.70928 21.9117 7.2654L25.6534 3.55128C19.347 -0.964639 10.4651 -0.379332 4.75472 5.28904C-0.955588 10.9573 -1.54528 19.7739 3.00416 26.0338L6.74587 22.3196C4.17073 18.1249 4.72634 12.558 8.40201 8.90944ZM27.5499 27.9165C21.8396 33.5847 12.9577 34.1701 6.65139 29.6542L10.3931 25.9399C14.6189 28.4962 20.2271 27.9446 23.9027 24.2961C27.5784 20.6474 28.134 15.0806 25.5589 10.8858L29.3006 7.17168C33.85 13.4316 33.2604 22.2481 27.5499 27.9165Z" fill="black"/>
</g>
<path d="M41.8951 23.8331V9.28758H47.5046C48.5635 9.28758 49.4436 9.45333 50.1447 9.78483C50.8507 10.1115 51.3778 10.559 51.726 11.1271C52.079 11.6953 52.2555 12.3392 52.2555 13.0589C52.2555 13.6508 52.141 14.1574 51.9121 14.5788C51.6831 14.9955 51.3754 15.334 50.989 15.5944C50.6027 15.8548 50.171 16.0419 49.694 16.1555V16.2975C50.2139 16.326 50.7124 16.4846 51.1894 16.7734C51.6711 17.0575 52.0647 17.4599 52.3699 17.9808C52.6752 18.5016 52.8279 19.1313 52.8279 19.87C52.8279 20.6229 52.6442 21.2999 52.2769 21.9013C51.9096 22.4979 51.3563 22.9689 50.617 23.3146C49.8777 23.6603 48.9475 23.8331 47.8266 23.8331H41.8951ZM44.5496 21.6313H47.4044C48.3679 21.6313 49.062 21.4491 49.4865 21.0845C49.9158 20.7152 50.1305 20.2417 50.1305 19.664C50.1305 19.2331 50.0231 18.845 49.8085 18.4993C49.5938 18.1489 49.2885 17.8743 48.8927 17.6754C48.4968 17.4718 48.0245 17.37 47.476 17.37H44.5496V21.6313ZM44.5496 15.4737H47.1755C47.6334 15.4737 48.046 15.3908 48.4133 15.2252C48.7806 15.0547 49.0691 14.8156 49.279 14.5078C49.4936 14.1953 49.6009 13.8259 49.6009 13.3998C49.6009 12.8364 49.4006 12.3723 49 12.0078C48.6041 11.6432 48.0149 11.4609 47.2327 11.4609H44.5496V15.4737ZM62.0271 19.245V12.924H64.6175V23.8331H62.1057V21.8941H61.9913C61.7434 22.5049 61.3356 23.0045 60.7682 23.3927C60.2053 23.781 59.511 23.9751 58.6861 23.9751C57.9658 23.9751 57.3291 23.8164 56.7758 23.4993C56.227 23.1773 55.7979 22.7109 55.4877 22.1002C55.1775 21.4846 55.0229 20.7412 55.0229 19.87V12.924H57.6127V19.4723C57.6127 20.1636 57.8036 20.7128 58.1849 21.12C58.5668 21.5272 59.0674 21.7308 59.6878 21.7308C60.0691 21.7308 60.439 21.6385 60.7964 21.4538C61.1544 21.2691 61.4478 20.9945 61.6767 20.63C61.9105 20.2606 62.0271 19.799 62.0271 19.245ZM71.3586 24.0248C70.4957 24.0248 69.7228 23.8047 69.0411 23.3643C68.3588 22.924 67.8202 22.2848 67.4237 21.4468C67.0278 20.6087 66.8303 19.5907 66.8303 18.3927C66.8303 17.1806 67.0305 16.1579 67.4313 15.3245C67.8365 14.4865 68.3832 13.8544 69.0693 13.4283C69.7565 12.9974 70.5223 12.7819 71.3662 12.7819C72.0106 12.7819 72.5394 12.8908 72.9548 13.1087C73.3697 13.3218 73.699 13.5798 73.9419 13.8828C74.1855 14.1811 74.3737 14.4628 74.5071 14.728H74.615V9.28758H77.2119V23.8331H74.6644V22.1143H74.5071C74.3737 22.3795 74.18 22.6612 73.9278 22.9595C73.6751 23.2531 73.341 23.504 72.9266 23.7124C72.5112 23.9207 71.9889 24.0248 71.3586 24.0248ZM72.0816 21.9155C72.6299 21.9155 73.0975 21.7687 73.4847 21.4751C73.8709 21.1768 74.1643 20.7626 74.3645 20.2322C74.5646 19.702 74.6644 19.084 74.6644 18.3786C74.6644 17.673 74.5646 17.0599 74.3645 16.539C74.1687 16.0182 73.8774 15.6134 73.4912 15.3245C73.1099 15.0358 72.6397 14.8913 72.0816 14.8913C71.5045 14.8913 71.0229 15.0405 70.6362 15.3387C70.25 15.6371 69.9593 16.049 69.7635 16.5745C69.5682 17.1001 69.4701 17.7015 69.4701 18.3786C69.4701 19.0603 69.5682 19.6688 69.7635 20.2038C69.9636 20.7341 70.2576 21.1532 70.6438 21.4609C71.0354 21.764 71.5137 21.9155 72.0816 21.9155ZM84.7514 28.1513C83.8213 28.1513 83.0218 28.0258 82.3547 27.7748C81.687 27.5286 81.1501 27.1972 80.7444 26.7806C80.3387 26.3639 80.0577 25.9022 79.9005 25.3956L82.2327 24.8345C82.3379 25.0475 82.4908 25.2583 82.691 25.4666C82.8911 25.6797 83.1601 25.8548 83.4996 25.9921C83.843 26.1342 84.2747 26.2052 84.7943 26.2052C85.5292 26.2052 86.1372 26.0276 86.6194 25.6726C87.1005 25.3222 87.3418 24.7446 87.3418 23.9396V21.8729H87.2127C87.0793 22.138 86.8841 22.4103 86.6259 22.6896C86.3731 22.9689 86.0369 23.2034 85.6171 23.3927C85.2022 23.5821 84.6793 23.6768 84.0501 23.6768C83.2062 23.6768 82.4404 23.4803 81.7532 23.0873C81.0714 22.6896 80.5274 22.0977 80.1223 21.3117C79.7215 20.5211 79.5208 19.5315 79.5208 18.343C79.5208 17.1451 79.7215 16.1342 80.1223 15.3104C80.5274 14.4817 81.0736 13.8544 81.7608 13.4283C82.448 12.9974 83.2127 12.7819 84.0577 12.7819C84.701 12.7819 85.2309 12.8908 85.6458 13.1087C86.0656 13.3218 86.3997 13.5798 86.6476 13.8828C86.8954 14.1811 87.0842 14.4628 87.2127 14.728H87.3559V12.924H89.9099V24.0106C89.9099 24.9434 89.6859 25.7152 89.2379 26.326C88.7894 26.9367 88.176 27.3937 87.3988 27.6968C86.621 27.9998 85.7386 28.1513 84.7514 28.1513ZM84.7731 21.6598C85.3215 21.6598 85.789 21.5272 86.1752 21.2621C86.5613 20.9969 86.8548 20.6157 87.0549 20.1186C87.2561 19.6214 87.3559 19.0248 87.3559 18.3288C87.3559 17.6423 87.2561 17.041 87.0549 16.5248C86.8596 16.0087 86.5689 15.6087 86.1828 15.3245C85.8004 15.0358 85.3312 14.8913 84.7731 14.8913C84.196 14.8913 83.7139 15.0405 83.3277 15.3387C82.9415 15.6371 82.6497 16.0466 82.4545 16.5675C82.2592 17.0835 82.1611 17.6707 82.1611 18.3288C82.1611 18.9964 82.2592 19.5812 82.4545 20.0831C82.6552 20.5802 82.948 20.9684 83.3348 21.2479C83.7258 21.5225 84.2053 21.6598 84.7731 21.6598ZM97.43 24.0461C96.3278 24.0461 95.3765 23.8189 94.5749 23.3643C93.7787 22.9051 93.1653 22.2564 92.7363 21.4183C92.3072 20.5755 92.0919 19.5836 92.0919 18.4425C92.0919 17.3203 92.3072 16.3355 92.7363 15.4879C93.1701 14.6356 93.776 13.9728 94.5537 13.4993C95.3315 13.0211 96.2449 12.7819 97.2938 12.7819C97.9712 12.7819 98.6107 12.8908 99.2116 13.1087C99.8175 13.3218 100.352 13.6531 100.814 14.1029C101.282 14.5527 101.649 15.1257 101.916 15.8218C102.183 16.513 102.317 17.3369 102.317 18.2933V19.0817H93.3085V17.3487H99.8337C99.8289 16.8563 99.7215 16.4183 99.5121 16.0348C99.3017 15.6465 99.0088 15.3412 98.6324 15.1186C98.2603 14.8961 97.8259 14.7848 97.3302 14.7848C96.8003 14.7848 96.3354 14.9126 95.9346 15.1683C95.5344 15.4193 95.2214 15.7507 94.9974 16.1626C94.7777 16.5698 94.6655 17.0173 94.6611 17.505V19.0178C94.6611 19.6522 94.7777 20.1968 95.0115 20.6513C95.2453 21.1011 95.5718 21.4468 95.9916 21.6882C96.4114 21.9249 96.9028 22.0433 97.4657 22.0433C97.8427 22.0433 98.1838 21.9912 98.4892 21.8871C98.794 21.7782 99.0587 21.6196 99.2832 21.4112C99.5072 21.2029 99.6765 20.9448 99.7909 20.6371L102.209 20.9069C102.057 21.5414 101.766 22.0954 101.337 22.5689C100.911 23.0376 100.369 23.4022 99.7057 23.6626C99.0419 23.9183 98.2836 24.0461 97.43 24.0461ZM109.996 12.924V14.9126H103.678V12.924H109.996ZM105.237 10.3103H107.828V20.5518C107.828 20.8975 107.88 21.1626 107.985 21.3473C108.095 21.5272 108.238 21.6503 108.414 21.7166C108.591 21.7829 108.786 21.816 109.001 21.816C109.164 21.816 109.312 21.8042 109.445 21.7805C109.583 21.7569 109.688 21.7355 109.76 21.7166L110.196 23.7265C110.057 23.7739 109.86 23.8259 109.602 23.8828C109.35 23.9396 109.039 23.9728 108.672 23.9822C108.024 24.0011 107.439 23.9041 106.919 23.691C106.399 23.4732 105.986 23.1371 105.682 22.6825C105.381 22.2279 105.233 21.6598 105.237 20.9779V10.3103ZM112.512 9.28758H115.761L120.111 19.8274H120.283L124.633 9.28758H127.881V23.8331H125.334V13.8402H125.198L121.148 23.7905H119.245L115.195 13.8189H115.06V23.8331H112.512V9.28758ZM133.82 24.0533C133.124 24.0533 132.496 23.9301 131.938 23.6839C131.385 23.433 130.946 23.0637 130.622 22.5759C130.302 22.0883 130.142 21.487 130.142 20.772C130.142 20.1565 130.257 19.6475 130.486 19.245C130.714 18.8426 131.027 18.5206 131.423 18.2791C131.819 18.0376 132.265 17.8553 132.761 17.7322C133.262 17.6044 133.78 17.5121 134.313 17.4552C134.958 17.389 135.48 17.3297 135.88 17.2777C136.281 17.2209 136.572 17.1356 136.754 17.022C136.94 16.9036 137.032 16.7213 137.032 16.4752V16.4325C137.032 15.8975 136.873 15.4832 136.553 15.1896C136.233 14.8961 135.773 14.7493 135.173 14.7493C134.538 14.7493 134.035 14.8866 133.663 15.1612C133.295 15.4358 133.047 15.7602 132.918 16.1342L130.5 15.7933C130.691 15.1304 131.006 14.5765 131.444 14.1314C131.884 13.6816 132.42 13.3454 133.054 13.1229C133.689 12.8956 134.39 12.7819 135.158 12.7819C135.688 12.7819 136.214 12.8435 136.74 12.9666C137.264 13.0897 137.743 13.2933 138.177 13.5774C138.611 13.8567 138.96 14.2379 139.222 14.7209C139.489 15.2038 139.623 15.8075 139.623 16.5319V23.8331H137.133V22.3345H137.047C136.889 22.6375 136.667 22.9216 136.382 23.1868C136.1 23.4472 135.745 23.6579 135.316 23.8189C134.891 23.9751 134.392 24.0533 133.82 24.0533ZM134.492 22.164C135.013 22.164 135.463 22.0622 135.845 21.8587C136.226 21.6503 136.52 21.3757 136.725 21.0348C136.935 20.6939 137.039 20.3222 137.039 19.9197V18.6342C136.959 18.7005 136.82 18.7621 136.625 18.8189C136.434 18.8756 136.219 18.9254 135.981 18.968C135.742 19.0106 135.506 19.0486 135.272 19.0817C135.039 19.1148 134.836 19.1432 134.664 19.1669C134.278 19.2189 133.932 19.3042 133.626 19.4225C133.321 19.5409 133.081 19.7067 132.904 19.9197C132.728 20.1281 132.639 20.3979 132.639 20.7294C132.639 21.2029 132.813 21.5603 133.162 21.8018C133.51 22.0433 133.953 22.164 134.492 22.164ZM144.588 20.4098L144.581 17.3061H144.996L148.945 12.924H151.972L147.114 18.2933H146.577L144.588 20.4098ZM142.227 23.8331V9.28758H144.817V23.8331H142.227ZM149.125 23.8331L145.547 18.8686L147.292 17.0575L152.223 23.8331H149.125ZM158.111 24.0461C157.009 24.0461 156.058 23.8189 155.256 23.3643C154.46 22.9051 153.846 22.2564 153.417 21.4183C152.988 20.5755 152.774 19.5836 152.774 18.4425C152.774 17.3203 152.988 16.3355 153.417 15.4879C153.851 14.6356 154.457 13.9728 155.235 13.4993C156.012 13.0211 156.926 12.7819 157.975 12.7819C158.652 12.7819 159.291 12.8908 159.892 13.1087C160.498 13.3218 161.033 13.6531 161.495 14.1029C161.963 14.5527 162.33 15.1257 162.597 15.8218C162.865 16.513 162.998 17.3369 162.998 18.2933V19.0817H153.99V17.3487H160.515C160.511 16.8563 160.403 16.4183 160.193 16.0348C159.983 15.6465 159.689 15.3412 159.313 15.1186C158.941 14.8961 158.507 14.7848 158.011 14.7848C157.481 14.7848 157.016 14.9126 156.616 15.1683C156.215 15.4193 155.903 15.7507 155.678 16.1626C155.459 16.5698 155.347 17.0173 155.342 17.505V19.0178C155.342 19.6522 155.459 20.1968 155.693 20.6513C155.926 21.1011 156.253 21.4468 156.673 21.6882C157.093 21.9249 157.584 22.0433 158.147 22.0433C158.524 22.0433 158.865 21.9912 159.17 21.8871C159.475 21.7782 159.74 21.6196 159.964 21.4112C160.188 21.2029 160.358 20.9448 160.472 20.6371L162.891 20.9069C162.738 21.5414 162.447 22.0954 162.017 22.5689C161.593 23.0376 161.049 23.4022 160.386 23.6626C159.723 23.9183 158.965 24.0461 158.111 24.0461ZM165.189 23.8331V12.924H167.701V14.7421H167.815C168.015 14.1124 168.359 13.6272 168.845 13.2862C169.337 12.9405 169.897 12.7677 170.527 12.7677C170.67 12.7677 170.83 12.7748 171.006 12.789C171.187 12.7985 171.337 12.8151 171.457 12.8387V15.2038C171.347 15.1659 171.173 15.1328 170.934 15.1044C170.701 15.0712 170.475 15.0547 170.255 15.0547C169.782 15.0547 169.358 15.1565 168.981 15.3601C168.609 15.5589 168.316 15.8359 168.101 16.191C167.887 16.5462 167.78 16.9557 167.78 17.4198V23.8331H165.189Z" fill="black"/>
</g>
</g>
</svg>
